<svg version="1.2" xmlns="http://www.w3.org/2000/svg" viewBox="0 0 58 33" width="58" height="33">
	<defs>
		<clipPath clipPathUnits="userSpaceOnUse" id="cp1">
			<path d="m-85 3h228v25.67h-228z"/>
		</clipPath>
		<radialGradient id="g1" cx="0" cy="0" r="1" gradientUnits="userSpaceOnUse" gradientTransform="matrix(9.719,0,0,9.719,47.967,21.118)">
			<stop offset="0" stop-color="#ffdc04"/>
			<stop offset=".21" stop-color="#f8b00d"/>
			<stop offset=".46" stop-color="#f08218"/>
			<stop offset=".69" stop-color="#eb6020"/>
			<stop offset=".88" stop-color="#e84b25"/>
			<stop offset="1" stop-color="#e74427"/>
		</radialGradient>
		<radialGradient id="g2" cx="0" cy="0" r="1" gradientUnits="userSpaceOnUse" gradientTransform="matrix(11.416,0,0,11.416,45.784,18.995)">
			<stop offset="0" stop-color="#ffdc04"/>
			<stop offset=".21" stop-color="#f8b00d"/>
			<stop offset=".46" stop-color="#f08218"/>
			<stop offset=".69" stop-color="#eb6020"/>
			<stop offset=".88" stop-color="#e84b25"/>
			<stop offset="1" stop-color="#e74427"/>
		</radialGradient>
		<radialGradient id="g3" cx="0" cy="0" r="1" gradientUnits="userSpaceOnUse" gradientTransform="matrix(14.283,0,0,14.283,42.534,18.424)">
			<stop offset="0" stop-color="#ffdc04"/>
			<stop offset=".21" stop-color="#f8b00d"/>
			<stop offset=".46" stop-color="#f08218"/>
			<stop offset=".69" stop-color="#eb6020"/>
			<stop offset=".88" stop-color="#e84b25"/>
			<stop offset="1" stop-color="#e74427"/>
		</radialGradient>
		<radialGradient id="g4" cx="0" cy="0" r="1" gradientUnits="userSpaceOnUse" gradientTransform="matrix(18.478,0,0,18.478,39.1,19.326)">
			<stop offset="0" stop-color="#ffdc04"/>
			<stop offset=".21" stop-color="#f8b00d"/>
			<stop offset=".46" stop-color="#f08218"/>
			<stop offset=".69" stop-color="#eb6020"/>
			<stop offset=".88" stop-color="#e84b25"/>
			<stop offset="1" stop-color="#e74427"/>
		</radialGradient>
		<radialGradient id="g5" cx="0" cy="0" r="1" gradientUnits="userSpaceOnUse" gradientTransform="matrix(26.673,0,0,26.673,37.499,21.932)">
			<stop offset="0" stop-color="#ffdc04"/>
			<stop offset=".2" stop-color="#f8b00d"/>
			<stop offset=".44" stop-color="#f08218"/>
			<stop offset=".65" stop-color="#eb6020"/>
			<stop offset=".83" stop-color="#e84b25"/>
			<stop offset=".94" stop-color="#e74427"/>
		</radialGradient>
		<radialGradient id="g6" cx="0" cy="0" r="1" gradientUnits="userSpaceOnUse" gradientTransform="matrix(34.379,0,0,34.379,36.611,24.805)">
			<stop offset="0" stop-color="#ffdc04"/>
			<stop offset=".18" stop-color="#f8b00d"/>
			<stop offset=".4" stop-color="#f08218"/>
			<stop offset=".6" stop-color="#eb6020"/>
			<stop offset=".76" stop-color="#e84b25"/>
			<stop offset=".87" stop-color="#e74427"/>
		</radialGradient>
		<radialGradient id="g7" cx="0" cy="0" r="1" gradientUnits="userSpaceOnUse" gradientTransform="matrix(-62.971,-109.51,109.51,-62.971,72.18,-33.308)">
			<stop offset="0" stop-color="#ffdc04"/>
			<stop offset=".18" stop-color="#f8b00d"/>
			<stop offset=".4" stop-color="#f08218"/>
			<stop offset=".6" stop-color="#eb6020"/>
			<stop offset=".76" stop-color="#e84b25"/>
			<stop offset=".87" stop-color="#e74427"/>
		</radialGradient>
	</defs>
	<style>
		.s0 { fill: url(#g1) } 
		.s1 { fill: url(#g2) } 
		.s2 { fill: url(#g3) } 
		.s3 { fill: url(#g4) } 
		.s4 { fill: url(#g5) } 
		.s5 { fill: url(#g6) } 
		.s6 { fill: url(#g7) } 
	</style>
	<g id="Clip-Path" clip-path="url(#cp1)">
		<g>
			<path class="s0" d="m52.39 20.64c1.61-0.85 2.51-2.3 3.15-3.94-1.72-0.39-3.42-0.46-5.03 0.39-1.6 0.85-2.5 2.3-3.14 3.94 1.71 0.39 3.41 0.46 5.02-0.39z"/>
			<path class="s1" d="m50.13 15.3c-1.41 2.24-3.28 3.12-4.93 3.62-0.28-1.71-0.29-3.77 1.12-6.01 1.4-2.24 3.27-3.12 4.93-3.61 0.27 1.7 0.28 3.77-1.12 6.01z"/>
			<path class="s2" d="m44.66 11.48c0.06-3.2-1.47-5.61-2.47-6.95-1.1 1.39-2.65 3.69-2.71 6.87-0.04 2.94 1.23 5.28 2.48 6.95 1.3-1.66 2.66-3.92 2.7-6.87z"/>
			<path class="s3" d="m36.86 9.67c-1.93-3.58-5.04-5.52-7.08-6.67-0.11 2.4-0.29 5.93 1.68 9.58 1.8 3.32 4.52 5.16 7.08 6.66 0.2-2.95 0.08-6.32-1.68-9.57z"/>
			<path class="s4" d="m27.21 12.22c-4.45-2.52-9.54-3.1-12.88-3.06 1.61 2.77 4.7 6.89 9.26 9.46 4.38 2.49 9.34 3.1 12.88 3.06-1.87-3.12-4.87-6.98-9.26-9.46z"/>
			<path class="s5" d="m18.77 20.8c-5.55 0-11.74 1.64-16.69 3.93 5.03 2.28 10.99 3.94 16.69 3.94 4.54 0 9.96-0.88 16.68-3.94-7.35-3.3-12.44-3.93-16.68-3.93z"/>
			<path class="s6" d="m-22.63 10.32c-3.41 0-5.01 2.53-5.01 5.66 0 3.34 2.08 5.61 5.41 5.61 2.26 0 3.63-0.88 3.81-0.98l-0.88-2c-0.15 0.09-1.11 0.74-2.6 0.74-1.72 0-2.84-1.02-2.95-2.44h6.97c0.03-0.2 0.15-0.85 0.15-1.43 0-3-1.79-5.16-4.9-5.16zm-2.22 4.55c0.01-1.21 0.68-2.41 2.22-2.41 1.44 0 2.2 1.05 2.23 2.41zm104.32-0.27c-0.65-0.7-1.99-1.76-3.66-1.32-3.44 0.91-5.52 8.7 0.45 8.7 0.32 0 2.54-0.01 2.9-0.01-0.35 1.43-2.95 2.5-7.15 2.5-5.14 0-7.61-3.62-4.48-8.83l-2.06-1.04c-2.61 4.41-3.17 12.48 6.54 12.48 6.89 0 9.75-2.65 9.75-6.65 0-3.1-1.07-4.52-2.29-5.84zm-2.6 4.84c-2.96 0-2.91-3.08-0.84-3.48 0.81-0.16 2.4 0.7 3.13 3.48zm-146.43-5.38v7.3h-2.59v-6.78c0-1.21-0.62-1.98-1.9-1.98-0.95 0-1.86 0.48-1.99 0.55 0.02 0.11 0.16 0.69 0.16 1.65v6.56h-2.6v-6.8c0-1.21-0.66-1.96-1.89-1.96-0.95 0-1.82 0.41-1.93 0.46 0.02 0.06 0.09 0.42 0.09 1.05v7.25h-2.59v-8.54c0-0.62-0.16-1.28-0.2-1.39 0.27-0.1 2.78-1.1 4.89-1.1 2.22 0 3.03 0.95 3.15 1.06 0.17-0.11 1.66-1.06 3.36-1.06 2.43 0 4.04 1.38 4.04 3.73zm207.17 5.25v-13.63l-2.6 0.6v10.41c0 1.58 0.21 2.19 0.25 2.35-0.09 0.04-0.83 0.4-2.26 0.4h-5.16c0.08-0.13 0.29-1.3-0.56-2.82-1.39-2.44-2.18-4.45-4.16-4.45-2.44 0-3.45 2.38-5.16 5.21-0.47 0.77-0.94 2.06-2.92 2.06h-4.23c-0.06-0.1-0.27-0.4-0.27-0.91 0-3.31-1.31-5.25-2.67-6.29l-1.77 1.76c1.35 0.98 1.95 2.1 1.95 4.16 0 0.92 0.18 1.12 0.26 1.28h-3.01c-0.1-0.2-0.22-0.52-0.22-1.16 0-2.62-1.45-3.83-2.36-4.56l-1.72 1.75c0.31 0.23 1.67 0.98 1.67 2.72 0 0.83 0.15 1.13 0.2 1.25h-2.83c-0.07-0.15-0.21-0.52-0.21-1.16 0-2.62-1.46-3.83-2.36-4.56l-1.73 1.75c0.34 0.27 1.68 1.09 1.68 2.83 0 0.57 0.13 1.04 0.2 1.14h-6.68c-0.17-2.22-1.28-4-2.56-4.9l-1.81 1.82c1.14 1.22 1.75 2.6 1.75 4.54 0 2.95-1.84 4.79-5.09 5.33l0.22 1.71c5.12-0.32 7.31-3.18 7.47-5.95h24.78c1.87 0 2.73-0.99 2.95-1.38 0.24 0.27 1.22 1.38 3.85 1.38h10.37c2.89 0 4.86-0.81 5.01-0.88-0.02-0.11-0.27-0.8-0.27-1.8zm5.39 2.68h-2.59v-15.71l2.59-0.61v16.32zm-40.66-14.67l-1.74-1.75 1.72-1.82 1.77 1.78-1.75 1.79zm-27.71 2.89l-1.74-1.75 1.72-1.83 1.69 1.69 1.7-1.7 1.8 1.75-1.75 1.84-1.75-1.71-1.67 1.71zm-123.09 8.01c0 2.37-2.05 3.38-4.3 3.38-1.83 0-3.37-0.64-3.56-0.71l0.76-2.03c0.05 0.03 1.19 0.64 2.35 0.64 1.25 0 1.88-0.51 1.88-1.22 0-0.51-0.34-0.96-1.22-1.31-0.29-0.11-0.76-0.3-1.08-0.42-1.12-0.42-2.41-1.18-2.41-2.99 0-2.14 1.97-3.22 3.94-3.23 1.76-0.01 2.88 0.53 3.16 0.65l-0.73 2c-0.08-0.03-1.17-0.49-2.37-0.49-0.72 0-1.35 0.28-1.35 0.93 0 0.59 0.44 0.91 1.22 1.22 0.31 0.12 0.75 0.29 1.1 0.43 1.39 0.55 2.61 1.42 2.61 3.14zm149.14-8.01l-1.75-1.75 1.72-1.81 1.69 1.68 1.7-1.71 1.8 1.75-1.75 1.84-1.75-1.71-1.66 1.71zm23.76 9.24h-1.07c-2.1 0-2.87-0.86-3.3-1.29 1.2-2.14 1.63-3.17 2.69-3.17 0.9 0 1.23 0.94 2.31 2.9 0.5 0.89 0.02 1.56-0.63 1.56zm-134.82-9.11c-3.54 0-5.81 2.31-5.81 5.61 0 3.3 2.41 5.66 5.33 5.66q0.98-0.01 1.98-0.37v4.99l2.6-0.33v-12.86c0-0.74 0.07-1.69 0.13-1.93-0.26-0.09-2.28-0.77-4.23-0.77zm1.51 3.87v4.85c-0.44 0.19-0.95 0.3-1.42 0.3-1.93 0-3.01-1.59-3.01-3.39 0-1.8 0.82-3.38 2.85-3.38 0.97 0 1.58 0.24 1.68 0.28-0.02 0.09-0.1 0.67-0.1 1.34zm-28.13-0.05v7.21h-2.6v-6.73c0-1.29-0.73-2.05-1.99-2.05-0.96 0-1.93 0.54-2.3 0.79v7.98h-2.59v-15.71l2.59-0.61v6.14c0.13-0.07 1.36-0.84 3.03-0.84 2.49 0 3.86 1.47 3.86 3.82zm-21.37 0.12c0-2.56-1.58-3.94-4.25-3.94-1.98 0-3.84 0.84-4.04 0.93l0.88 1.96c0.14-0.06 1.52-0.69 3.01-0.69 1.1 0 1.81 0.41 1.81 1 0 0.63-0.62 0.88-1.55 1.1-1.98 0.46-5.14 0.68-5.14 3.62 0 2.52 2.5 3.35 4.83 3.35 2.34 0 4.49-0.79 4.64-0.84-0.04-0.19-0.19-0.65-0.19-1.75v-4.73zm-4.48 5.2c-1 0-1.95-0.37-1.95-1.36 0-0.8 0.86-1.12 1.8-1.34 0.79-0.19 1.67-0.42 2.04-0.71v1.85c0 0.72 0.07 1.13 0.09 1.22-0.1 0.04-0.93 0.34-1.98 0.34zm33.04-9.15c0.67 0 1.41 0.09 1.99 0.24l-0.79 2.22c-0.34-0.1-0.95-0.21-1.42-0.21-1.05 0-1.94 0.26-2.04 0.3 0.01 0.07 0.12 0.55 0.12 1.47v7.01h-2.59v-7.72c0-1.23-0.18-2.04-0.2-2.12 0.29-0.11 2.61-1.19 4.93-1.19z"/>
		</g>
	</g>
</svg>